<svg width="239" height="29" viewBox="0 0 239 29" xmlns="http://www.w3.org/2000/svg" xmlns:xlink="http://www.w3.org/1999/xlink"><title>Group</title><desc>Created using Figma</desc><use xlink:href="#a" transform="translate(0 14)" fill="#603CC9"/><use xlink:href="#b" transform="translate(7 8)" fill="#9672FF"/><use xlink:href="#c" transform="translate(14.545 2)" fill="#D05DE2"/><use xlink:href="#d" transform="translate(23 -9)" fill-opacity=".8"/><defs><path id="a" d="M0 2.5a2.5 2.5 0 0 1 5 0v9a2.5 2.5 0 0 1-5 0v-9z"/><path id="b" d="M0 2.5a2.5 2.5 0 0 1 5 0v15a2.5 2.5 0 0 1-5 0v-15z"/><path id="c" d="M0 2.5a2.5 2.5 0 0 1 5 0v21a2.5 2.5 0 0 1-5 0v-21z"/><path id="d" d="M2.124 29.188V18.712c0-2.76.732-4.788 2.196-6.084 1.464-1.296 3.384-1.944 5.76-1.944 2.424 0 4.392.612 5.904 1.836 1.536 1.2 2.304 2.808 2.304 4.824 0 .696-.156 1.176-.468 1.44-.288.264-.768.396-1.44.396-1.248 0-1.884-.42-1.908-1.26-.264-2.568-1.692-3.852-4.284-3.852-2.832 0-4.248 1.548-4.248 4.644v10.476c0 3.096 1.416 4.644 4.248 4.644 1.368 0 2.424-.384 3.168-1.152.744-.768 1.116-1.932 1.116-3.492v-2.952h-3.636c-.384 0-.684-.144-.9-.432-.216-.312-.324-.684-.324-1.116 0-.384.108-.732.324-1.044.216-.312.516-.468.9-.468h6.192c.384 0 .684.132.9.396.24.24.36.54.36.9v4.716c0 2.76-.744 4.788-2.232 6.084-1.464 1.296-3.42 1.944-5.868 1.944-2.448 0-4.404-.648-5.868-1.944-1.464-1.296-2.196-3.324-2.196-6.084zm19.86 6.552V21.16c0-.36.168-.648.504-.864.36-.24.804-.36 1.332-.36.48 0 .888.12 1.224.36.336.216.504.504.504.864v1.584c.408-.84 1.02-1.548 1.836-2.124.84-.6 1.752-.9 2.736-.9h1.152c.384 0 .72.168 1.008.504.288.312.432.696.432 1.152 0 .456-.144.852-.432 1.188-.288.336-.624.504-1.008.504H30.12c-1.152 0-2.172.492-3.06 1.476-.864.984-1.296 2.256-1.296 3.816v7.38c0 .312-.192.6-.576.864-.384.264-.84.396-1.368.396-.528 0-.972-.132-1.332-.396-.336-.264-.504-.552-.504-.864zm11.867-5.616v-3.312c0-1.896.732-3.552 2.196-4.968 1.464-1.416 3.216-2.124 5.256-2.124 1.992 0 3.732.708 5.22 2.124 1.488 1.392 2.232 3.048 2.232 4.968v3.312c0 1.872-.756 3.54-2.268 5.004-1.488 1.44-3.216 2.16-5.184 2.16-1.992 0-3.732-.72-5.22-2.16-1.488-1.44-2.232-3.108-2.232-5.004zm3.78 0c0 .984.36 1.872 1.08 2.664.72.768 1.584 1.152 2.592 1.152.984 0 1.836-.384 2.556-1.152.744-.792 1.116-1.68 1.116-2.664v-3.312c0-.96-.372-1.824-1.116-2.592-.72-.768-1.572-1.152-2.556-1.152-1.008 0-1.872.384-2.592 1.152-.72.768-1.08 1.632-1.08 2.592v3.312zm12.827-8.748c0-.432.264-.804.792-1.116.528-.312 1.068-.468 1.62-.468.6 0 .984.228 1.152.684l3.996 11.196 3.06-9.936c.168-.552.612-.828 1.332-.828.72 0 1.164.276 1.332.828l3.024 10.008 4.032-11.268c.144-.456.516-.684 1.116-.684.528 0 1.056.156 1.584.468.552.312.828.696.828 1.152 0 .192-.048.384-.144.576l-5.58 14.616c-.192.504-.696.756-1.512.756-.816 0-1.332-.24-1.548-.72l-3.132-9.288-3.096 9.18c-.216.552-.756.828-1.62.828-.792 0-1.296-.276-1.512-.828l-5.58-14.544c-.096-.288-.144-.492-.144-.612zM76.65 31.384V13.348c0-.336.192-.624.576-.864.384-.24.816-.36 1.296-.36.48 0 .912.12 1.296.36.408.24.612.528.612.864v6.588h4.392c.312 0 .564.144.756.432.192.264.288.588.288.972s-.096.72-.288 1.008a.893.893 0 0 1-.756.396H80.43v8.64c0 .864.18 1.476.54 1.836.384.36 1.044.54 1.98.54h1.26c.504 0 .9.156 1.188.468.288.312.432.696.432 1.152 0 .456-.144.84-.432 1.152-.288.312-.684.468-1.188.468h-1.26c-4.2 0-6.3-1.872-6.3-5.616zm11.92 4.356V11.008c0-.36.168-.648.504-.864.36-.24.816-.36 1.368-.36.528 0 .972.12 1.332.36.384.216.576.504.576.864v11.448c.384-.768.972-1.416 1.764-1.944.816-.528 1.764-.792 2.844-.792 1.704 0 3.168.696 4.392 2.088 1.248 1.392 1.872 3.06 1.872 5.004v8.928c0 .384-.192.696-.576.936-.384.216-.828.324-1.332.324-.48 0-.912-.108-1.296-.324-.384-.24-.576-.552-.576-.936v-8.928c0-.96-.36-1.824-1.08-2.592-.72-.768-1.572-1.152-2.556-1.152-.912 0-1.716.348-2.412 1.044-.696.672-1.044 1.572-1.044 2.7v8.928c0 .312-.192.6-.576.864a2.294 2.294 0 0 1-1.332.396c-.528 0-.972-.132-1.332-.396-.36-.264-.54-.552-.54-.864zm19.212-5.94V18.1c0-2.568.636-4.44 1.908-5.616 1.272-1.2 2.976-1.8 5.112-1.8 2.16 0 3.876.564 5.148 1.692 1.272 1.128 1.908 2.544 1.908 4.248 0 .48-.216.72-.648.72-.408 0-.624-.216-.648-.648-.216-1.584-.828-2.76-1.836-3.528-.984-.792-2.292-1.188-3.924-1.188-1.848 0-3.264.516-4.248 1.548-.984 1.008-1.476 2.532-1.476 4.572v11.7c0 2.04.492 3.576 1.476 4.608.984 1.008 2.4 1.512 4.248 1.512 1.848 0 3.264-.504 4.248-1.512 1.008-1.032 1.512-2.568 1.512-4.608v-5.328h-5.724c-.408 0-.612-.216-.612-.648 0-.432.204-.648.612-.648h6.408c.408 0 .612.228.612.684v5.94c0 2.568-.648 4.452-1.944 5.652-1.272 1.176-2.976 1.764-5.112 1.764s-3.84-.588-5.112-1.764c-1.272-1.2-1.908-3.084-1.908-5.652zm18.189.864v-4.392c0-1.728.624-3.24 1.872-4.536 1.272-1.296 2.772-1.944 4.5-1.944 1.728 0 3.228.636 4.5 1.908 1.272 1.272 1.908 2.796 1.908 4.572v4.392c0 1.728-.648 3.252-1.944 4.572-1.272 1.32-2.76 1.98-4.464 1.98-1.704 0-3.192-.66-4.464-1.98-1.272-1.32-1.908-2.844-1.908-4.572zm1.26 0c0 1.368.504 2.592 1.512 3.672s2.208 1.62 3.6 1.62 2.592-.54 3.6-1.62c1.032-1.08 1.548-2.304 1.548-3.672v-4.392c0-1.344-.504-2.544-1.512-3.6-1.008-1.08-2.22-1.62-3.636-1.62s-2.628.54-3.636 1.62c-.984 1.056-1.476 2.256-1.476 3.6v4.392zm15.123 0v-4.392c0-1.776.636-3.3 1.908-4.572 1.272-1.272 2.796-1.908 4.572-1.908 2.184 0 3.792.912 4.824 2.736V9.964c0-.408.216-.612.648-.612.408 0 .612.204.612.612v26.388c0 .168-.06.324-.18.468a.59.59 0 0 1-.432.18.717.717 0 0 1-.468-.18.717.717 0 0 1-.18-.468V34.48c-.408.768-1.068 1.416-1.98 1.944a5.601 5.601 0 0 1-2.916.792c-1.704 0-3.204-.66-4.5-1.98-1.272-1.32-1.908-2.844-1.908-4.572zm1.26 0c0 1.368.504 2.592 1.512 3.672 1.032 1.08 2.22 1.62 3.564 1.62 1.296 0 2.448-.468 3.456-1.404 1.008-.96 1.512-1.812 1.512-2.556v-5.724c0-1.56-.504-2.82-1.512-3.78-.984-.96-2.124-1.44-3.42-1.44-1.368 0-2.568.54-3.6 1.62-1.008 1.056-1.512 2.256-1.512 3.6v4.392zm15.58 0v-4.392c0-1.776.636-3.3 1.908-4.572 1.272-1.272 2.796-1.908 4.572-1.908 2.184 0 3.792.912 4.824 2.736V9.964c0-.408.216-.612.648-.612.408 0 .612.204.612.612v26.388c0 .168-.06.324-.18.468a.59.59 0 0 1-.432.18.717.717 0 0 1-.468-.18.717.717 0 0 1-.18-.468V34.48c-.408.768-1.068 1.416-1.98 1.944a5.601 5.601 0 0 1-2.916.792c-1.704 0-3.204-.66-4.5-1.98-1.272-1.32-1.908-2.844-1.908-4.572zm1.26 0c0 1.368.504 2.592 1.512 3.672 1.032 1.08 2.22 1.62 3.564 1.62 1.296 0 2.448-.468 3.456-1.404 1.008-.96 1.512-1.812 1.512-2.556v-5.724c0-1.56-.504-2.82-1.512-3.78-.984-.96-2.124-1.44-3.42-1.44-1.368 0-2.568.54-3.6 1.62-1.008 1.056-1.512 2.256-1.512 3.6v4.392zm15.615 0v-4.5c0-1.728.624-3.216 1.872-4.464 1.272-1.272 2.784-1.908 4.536-1.908 1.728 0 3.216.624 4.464 1.872 1.272 1.224 1.908 2.76 1.908 4.608 0 .624-.072 1.128-.216 1.512-.144.384-.384.66-.72.828a3.352 3.352 0 0 1-.936.324c-.264.024-.636.036-1.116.036h-8.532v1.692c0 1.608.564 2.892 1.692 3.852 1.128.96 2.592 1.44 4.392 1.44.888 0 1.632-.12 2.232-.36.6-.264 1.044-.516 1.332-.756.312-.24.54-.36.684-.36.168 0 .312.072.432.216.144.144.216.288.216.432 0 .24-.192.528-.576.864-.384.312-.972.6-1.764.864-.792.24-1.668.36-2.628.36-2.136 0-3.888-.6-5.256-1.8-1.344-1.224-2.016-2.808-2.016-4.752zm1.26-2.952h8.1c.888 0 1.464-.084 1.728-.252.288-.168.432-.528.432-1.08 0-1.368-.48-2.592-1.44-3.672-.96-1.104-2.184-1.656-3.672-1.656-1.44 0-2.664.516-3.672 1.548-.984 1.008-1.476 2.196-1.476 3.564v1.548zm14.304 7.164a.67.67 0 0 1 .144-.432c.12-.12.24-.18.36-.18s.3.096.54.288l.756.576c.288.192.732.384 1.332.576a8.03 8.03 0 0 0 2.088.252c1.416 0 2.472-.276 3.168-.828.696-.552 1.044-1.272 1.044-2.16 0-1.032-.312-1.836-.936-2.412-.624-.6-1.38-1.032-2.268-1.296l-2.664-.828a5.593 5.593 0 0 1-2.268-1.368c-.624-.648-.936-1.512-.936-2.592 0-1.224.456-2.304 1.368-3.24.912-.96 2.232-1.44 3.96-1.44 1.056 0 2.052.168 2.988.504.936.336 1.404.672 1.404 1.008 0 .144-.072.3-.216.468-.12.168-.252.252-.396.252-.024 0-.444-.156-1.26-.468a6.297 6.297 0 0 0-2.484-.504c-1.392 0-2.424.36-3.096 1.08-.672.696-1.008 1.464-1.008 2.304 0 .864.312 1.548.936 2.052.624.504 1.38.876 2.268 1.116.888.24 1.776.504 2.664.792a4.881 4.881 0 0 1 2.268 1.548c.624.744.936 1.728.936 2.952 0 1.344-.48 2.4-1.44 3.168-.96.768-2.292 1.152-3.996 1.152-1.488 0-2.736-.264-3.744-.792s-1.512-1.044-1.512-1.548zm13.429 0a.67.67 0 0 1 .144-.432c.12-.12.24-.18.36-.18s.3.096.54.288l.756.576c.288.192.732.384 1.332.576a8.03 8.03 0 0 0 2.088.252c1.416 0 2.472-.276 3.168-.828.696-.552 1.044-1.272 1.044-2.16 0-1.032-.312-1.836-.936-2.412-.624-.6-1.38-1.032-2.268-1.296l-2.664-.828a5.593 5.593 0 0 1-2.268-1.368c-.624-.648-.936-1.512-.936-2.592 0-1.224.456-2.304 1.368-3.24.912-.96 2.232-1.44 3.96-1.44 1.056 0 2.052.168 2.988.504.936.336 1.404.672 1.404 1.008 0 .144-.072.3-.216.468-.12.168-.252.252-.396.252-.024 0-.444-.156-1.26-.468a6.297 6.297 0 0 0-2.484-.504c-1.392 0-2.424.36-3.096 1.08-.672.696-1.008 1.464-1.008 2.304 0 .864.312 1.548.936 2.052.624.504 1.38.876 2.268 1.116.888.24 1.776.504 2.664.792a4.881 4.881 0 0 1 2.268 1.548c.624.744.936 1.728.936 2.952 0 1.344-.48 2.4-1.44 3.168-.96.768-2.292 1.152-3.996 1.152-1.488 0-2.736-.264-3.744-.792s-1.512-1.044-1.512-1.548z"/></defs></svg>