<svg width="60" height="141" viewBox="0 0 60 141" xmlns="http://www.w3.org/2000/svg" xmlns:xlink="http://www.w3.org/1999/xlink"><title>Group</title><desc>Created using Figma</desc><use xlink:href="#a" transform="translate(4.751 46.754)" fill="#FFF"/><g transform="translate(-79 -145)"><use xlink:href="#b" transform="rotate(-4.684 1829.702 -1152.398) skewX(.037)" fill="#006934"/><mask id="c"><use xlink:href="#b" fill="#fff" transform="rotate(-4.684 1829.702 -1152.398) skewX(.037)"/></mask><g mask="url(#c)"><use xlink:href="#d" transform="rotate(-4.684 1829.702 -1152.398) skewX(.037)" fill="#154902"/></g></g><use xlink:href="#e" transform="translate(3 43)" fill="#B75D5D" fill-opacity=".5"/><g transform="translate(-79 -145)"><use xlink:href="#f" transform="translate(79 181)" fill="#FCE3E3"/><mask id="g"><use xlink:href="#f" fill="#fff" transform="translate(79 181)"/></mask><g mask="url(#g)"><use xlink:href="#h" transform="translate(79 181)" fill="#5D2020"/></g></g><use xlink:href="#i" transform="translate(4.185 47.662)" fill="#D50503" fill-opacity=".7"/><use xlink:href="#j" transform="translate(39 49)" fill="#3D2C2C" fill-opacity=".2"/><use xlink:href="#k" transform="matrix(-1 0 0 1 20 48)" fill="#F2F2F2" fill-opacity=".2"/><use xlink:href="#l" transform="rotate(-8.848 360.242 -19.387) skewX(.069)" fill="#FCE3E3" fill-opacity=".1"/><use xlink:href="#m" transform="rotate(-8.848 373.927 -34.268) skewX(.069)" fill="#FFF" fill-opacity=".2"/><use xlink:href="#n" transform="matrix(.67943 .7345 -.73635 .67579 20.743 96.9)" fill="#F48383" fill-opacity=".43"/><use xlink:href="#o" transform="matrix(.67943 .7345 -.73635 .67579 20.497 100.002)" fill="#FCE3E3" fill-opacity=".2"/><use xlink:href="#n" transform="matrix(.67943 .7345 -.73635 .67579 42.724 55)" fill="#F48383" fill-opacity=".54"/><use xlink:href="#p" transform="matrix(.67943 .7345 -.73635 .67579 42.478 58.102)" fill="#FCE3E3" fill-opacity=".2"/><use xlink:href="#q" transform="matrix(.90127 .43726 -.43852 .89678 26.195 57)" fill="#FFF" fill-opacity=".1"/><use xlink:href="#r" transform="matrix(.90127 .43726 -.43852 .89678 27.101 59.978)" fill="#FCE3E3" fill-opacity=".2"/><use xlink:href="#n" transform="matrix(.67943 .7345 -.73635 .67579 17.036 62.843)" fill="#FFF" fill-opacity=".1"/><use xlink:href="#o" transform="matrix(.67943 .7345 -.73635 .67579 16.79 65.945)" fill="#FCE3E3" fill-opacity=".2"/><use xlink:href="#n" transform="matrix(.67943 .7345 -.73635 .67579 47.535 65.375)" fill="#FFF" fill-opacity=".1"/><use xlink:href="#o" transform="matrix(.67943 .7345 -.73635 .67579 47.289 68.477)" fill="#FCE3E3" fill-opacity=".2"/><g fill="#46191F" fill-opacity=".6"><use xlink:href="#s" transform="rotate(-65.415 67.286 26.557)"/><use xlink:href="#s" transform="rotate(-65.415 66.107 24.722)"/><use xlink:href="#s" transform="rotate(-65.415 69.12 25.379)"/><use xlink:href="#s" transform="rotate(-65.415 67.942 23.544)"/><use xlink:href="#s" transform="rotate(-65.415 64.273 25.9)"/><use xlink:href="#s" transform="rotate(-65.415 63.095 24.066)"/><use xlink:href="#s" transform="rotate(-65.415 64.929 22.887)"/><use xlink:href="#s" transform="rotate(-65.415 66.764 21.71)"/><use xlink:href="#s" transform="rotate(-65.415 63.751 21.053)"/><use xlink:href="#s" transform="rotate(-65.415 65.586 19.875)"/><use xlink:href="#s" transform="rotate(-65.415 69.777 22.366)"/><use xlink:href="#s" transform="rotate(-65.415 68.599 20.53)"/><use xlink:href="#s" transform="rotate(-65.415 61.916 22.23)"/><use xlink:href="#s" transform="rotate(-65.415 67.286 26.557)"/></g><g fill="#5D2020" fill-opacity=".5"><use xlink:href="#t" transform="translate(42 53)"/><use xlink:href="#t" transform="translate(44 53)"/><use xlink:href="#t" transform="translate(42 55)"/><use xlink:href="#t" transform="translate(44 55)"/><use xlink:href="#t" transform="translate(44 51)"/><use xlink:href="#t" transform="translate(46 51)"/><use xlink:href="#t" transform="translate(46 53)"/><use xlink:href="#t" transform="translate(46 55)"/><use xlink:href="#t" transform="translate(48 53)"/><use xlink:href="#t" transform="translate(48 55)"/><use xlink:href="#t" transform="translate(44 57)"/><use xlink:href="#t" transform="translate(46 57)"/><use xlink:href="#t" transform="translate(48 51)"/><use xlink:href="#t" transform="translate(42 53)"/></g><use xlink:href="#n" transform="matrix(.67943 .7345 -.73635 .67579 11.953 62.843)" fill="#FFF" fill-opacity=".1"/><use xlink:href="#o" transform="matrix(.67943 .7345 -.73635 .67579 11.707 65.945)" fill="#FCE3E3" fill-opacity=".2"/><use xlink:href="#u" transform="matrix(-.20608 .97645 -.98077 -.20536 58.169 61.017)" fill="#FFF" fill-opacity=".1"/><use xlink:href="#v" transform="matrix(-.20608 .97645 -.98077 -.20536 55.49 62.618)" fill="#FCE3E3" fill-opacity=".1"/><g transform="translate(-79 -145)"><mask id="x"><use xlink:href="#w" fill="#fff" transform="translate(81 186)"/></mask><g mask="url(#x)"><use xlink:href="#y" transform="translate(81 186)" fill="#5D2020"/></g></g><g fill="#46191F" fill-opacity=".6"><use xlink:href="#z" transform="translate(36 61)"/><use xlink:href="#z" transform="translate(37 61)"/><use xlink:href="#z" transform="translate(36 62)"/><use xlink:href="#z" transform="translate(37 62)"/><use xlink:href="#z" transform="translate(37 60)"/><use xlink:href="#z" transform="translate(38 60)"/><use xlink:href="#z" transform="translate(38 61)"/><use xlink:href="#z" transform="translate(38 62)"/><use xlink:href="#z" transform="translate(39 61)"/><use xlink:href="#z" transform="translate(39 62)"/><use xlink:href="#z" transform="translate(37 63)"/><use xlink:href="#z" transform="translate(38 63)"/><use xlink:href="#z" transform="translate(39 60)"/><use xlink:href="#z" transform="translate(36 61)"/></g><g fill="#5D2020" fill-opacity=".5"><use xlink:href="#A" transform="translate(33 60.2)"/><use xlink:href="#A" transform="translate(35.2 60.2)"/><use xlink:href="#A" transform="translate(33 62.4)"/><use xlink:href="#A" transform="translate(35.2 62.4)"/><use xlink:href="#A" transform="translate(35.2 58)"/><use xlink:href="#A" transform="translate(37.4 58)"/><use xlink:href="#A" transform="translate(37.4 60.2)"/><use xlink:href="#A" transform="translate(37.4 62.4)"/><use xlink:href="#A" transform="translate(39.6 60.2)"/><use xlink:href="#A" transform="translate(39.6 62.4)"/><use xlink:href="#A" transform="translate(35.2 64.6)"/><use xlink:href="#A" transform="translate(37.4 64.6)"/><use xlink:href="#A" transform="translate(39.6 58)"/><use xlink:href="#A" transform="translate(33 60.2)"/></g><g fill="#5D2020" fill-opacity=".5"><use xlink:href="#A" transform="translate(21 59.2)"/><use xlink:href="#A" transform="translate(23.2 59.2)"/><use xlink:href="#A" transform="translate(21 61.4)"/><use xlink:href="#A" transform="translate(23.2 61.4)"/><use xlink:href="#A" transform="translate(23.2 57)"/><use xlink:href="#A" transform="translate(25.4 57)"/><use xlink:href="#A" transform="translate(25.4 59.2)"/><use xlink:href="#A" transform="translate(25.4 61.4)"/><use xlink:href="#A" transform="translate(27.6 59.2)"/><use xlink:href="#A" transform="translate(27.6 61.4)"/><use xlink:href="#A" transform="translate(23.2 63.6)"/><use xlink:href="#A" transform="translate(25.4 63.6)"/><use xlink:href="#A" transform="translate(27.6 57)"/><use xlink:href="#A" transform="translate(21 59.2)"/></g><g fill="#5D2020" fill-opacity=".5"><use xlink:href="#B" transform="translate(24 51.6)"/><use xlink:href="#B" transform="translate(26.6 51.6)"/><use xlink:href="#B" transform="translate(24 54.2)"/><use xlink:href="#B" transform="translate(26.6 54.2)"/><use xlink:href="#B" transform="translate(26.6 49)"/><use xlink:href="#B" transform="translate(29.2 49)"/><use xlink:href="#B" transform="translate(29.2 51.6)"/><use xlink:href="#B" transform="translate(29.2 54.2)"/><use xlink:href="#B" transform="translate(31.8 51.6)"/><use xlink:href="#B" transform="translate(31.8 54.2)"/><use xlink:href="#B" transform="translate(26.6 56.8)"/><use xlink:href="#B" transform="translate(29.2 56.8)"/><use xlink:href="#B" transform="translate(31.8 49)"/><use xlink:href="#B" transform="translate(24 51.6)"/></g><g fill="#5D2020"><use xlink:href="#B" transform="translate(14 48.6)" fill-opacity=".5"/><use xlink:href="#B" transform="translate(16.6 48.6)" fill-opacity=".5"/><use xlink:href="#B" transform="translate(14 51.2)" fill-opacity=".5"/><use xlink:href="#B" transform="translate(16.6 51.2)" fill-opacity=".5"/><use xlink:href="#B" transform="translate(16.6 46)" fill-opacity=".8"/><use xlink:href="#B" transform="translate(19.2 46)" fill-opacity=".8"/><use xlink:href="#B" transform="translate(19.2 48.6)" fill-opacity=".5"/><use xlink:href="#B" transform="translate(19.2 51.2)" fill-opacity=".5"/><use xlink:href="#B" transform="translate(21.8 48.6)" fill-opacity=".5"/><use xlink:href="#B" transform="translate(21.8 51.2)" fill-opacity=".5"/><use xlink:href="#B" transform="translate(16.6 53.8)" fill-opacity=".5"/><use xlink:href="#B" transform="translate(19.2 53.8)" fill-opacity=".5"/><use xlink:href="#B" transform="translate(21.8 46)" fill-opacity=".8"/><use xlink:href="#B" transform="translate(14 48.6)" fill-opacity=".5"/><use xlink:href="#B" transform="translate(35 48.6)" fill-opacity=".5"/><use xlink:href="#B" transform="translate(37.6 48.6)" fill-opacity=".5"/><use xlink:href="#B" transform="translate(35 51.2)" fill-opacity=".5"/><use xlink:href="#B" transform="translate(37.6 51.2)" fill-opacity=".5"/><use xlink:href="#B" transform="translate(37.6 46)" fill-opacity=".9"/><use xlink:href="#B" transform="translate(40.2 46)" fill-opacity=".9"/><use xlink:href="#B" transform="translate(40.2 48.6)" fill-opacity=".5"/><use xlink:href="#B" transform="translate(40.2 51.2)" fill-opacity=".5"/><use xlink:href="#B" transform="translate(42.8 48.6)" fill-opacity=".5"/><use xlink:href="#B" transform="translate(42.8 51.2)" fill-opacity=".5"/><use xlink:href="#B" transform="translate(37.6 53.8)" fill-opacity=".5"/><use xlink:href="#B" transform="translate(40.2 53.8)" fill-opacity=".5"/><use xlink:href="#B" transform="translate(43 47)" fill-opacity=".9"/><use xlink:href="#B" transform="translate(35 48.6)" fill-opacity=".5"/></g><use xlink:href="#C" transform="translate(50 39)" fill="#B75D5D" fill-opacity=".5"/><g fill="#5D2020" fill-opacity=".5"><use xlink:href="#D" transform="translate(12 56.6)"/><use xlink:href="#D" transform="translate(13.6 56.6)"/><use xlink:href="#D" transform="translate(12 58.2)"/><use xlink:href="#D" transform="translate(13.6 58.2)"/><use xlink:href="#D" transform="translate(13.6 55)"/><use xlink:href="#D" transform="translate(15.2 55)"/><use xlink:href="#D" transform="translate(15.2 56.6)"/><use xlink:href="#D" transform="translate(15.2 58.2)"/><use xlink:href="#D" transform="translate(16.8 56.6)"/><use xlink:href="#D" transform="translate(16.8 58.2)"/><use xlink:href="#D" transform="translate(13.6 59.8)"/><use xlink:href="#D" transform="translate(15.2 59.8)"/><use xlink:href="#D" transform="translate(16.8 55)"/><use xlink:href="#D" transform="translate(12 56.6)"/></g><g fill="#5D2020" fill-opacity=".5"><use xlink:href="#t" transform="translate(7 51)"/><use xlink:href="#t" transform="translate(9 51)"/><use xlink:href="#t" transform="translate(7 53)"/><use xlink:href="#t" transform="translate(9 53)"/><use xlink:href="#t" transform="translate(9 49)"/><use xlink:href="#t" transform="translate(11 49)"/><use xlink:href="#t" transform="translate(11 51)"/><use xlink:href="#t" transform="translate(11 53)"/><use xlink:href="#t" transform="translate(13 51)"/><use xlink:href="#t" transform="translate(13 53)"/><use xlink:href="#t" transform="translate(9 55)"/><use xlink:href="#t" transform="translate(11 55)"/><use xlink:href="#t" transform="translate(13 49)"/><use xlink:href="#t" transform="translate(7 51)"/></g><use xlink:href="#E" transform="translate(14 68) scale(1.76812)" fill="#FCE3E3"/><use xlink:href="#F" transform="translate(14.144 68.161) scale(1.76812)" fill="#007042"/><use xlink:href="#G" transform="translate(29.104 81.949) scale(1.76812)" fill="#FCE3E3" opacity=".99"/><use xlink:href="#H" transform="translate(29.554 82.231) scale(1.76812)" fill="#007042"/><defs><path id="a" d="M0 0h50.833v12.658H0V0z"/><path id="b" d="M.02 2.378A2 2 0 0 1 1.88.362L4.89.151a2 2 0 0 1 2.141 1.996l-.046 93.127a2 2 0 0 1-1.838 1.992l-1.998.164a2 2 0 0 1-2.163-1.973L.02 2.378z"/><path id="d" d="M1.88.362l.14 1.995L1.88.362zm3.268 96.904l-.163-1.993.162 1.993zM2.018 2.357l3.012-.211-.28-3.99-3.012.211.28 3.99zm3.012-.211l-.046 93.127 4 .002.046-93.127-4-.002zm-.046 93.127l-2 .163.327 3.987 1.998-.163-.325-3.987zm-2 .163L2.02 2.358l-4 .042.967 93.079 4-.041zM1.74-1.633A4 4 0 0 0-1.981 2.4l4-.042-.28-3.99zm3.29 3.779l4 .002a4 4 0 0 0-4.28-3.992l.28 3.99zm-.046 93.127l.325 3.987a4 4 0 0 0 3.675-3.985l-4-.002zm-2 .163l-3.999.042a4 4 0 0 0 4.326 3.945l-.326-3.987z"/><path id="e" d="M0 0h54v4H0V0z"/><path id="f" d="M0 2a2 2 0 0 1 2-2h56a2 2 0 0 1 2 2v4a2 2 0 0 1-2 2H2a2 2 0 0 1-2-2V2z"/><path id="h" d="M2 3h56v-6H2v6zm55-1v4h6V2h-6zm1 3H2v6h56V5zM3 6V2h-6v4h6zM2-3a5 5 0 0 0-5 5h6a1 1 0 0 1-1 1v-6zm56 6a1 1 0 0 1-1-1h6a5 5 0 0 0-5-5v6zm-1 3a1 1 0 0 1 1-1v6a5 5 0 0 0 5-5h-6zM2 5a1 1 0 0 1 1 1h-6a5 5 0 0 0 5 5V5z"/><path id="i" d="M.121 4.13C-.601.196 2.008.339 5.315 1.839c3.306 1.5 7.332-1.466 12-.5 9.771 2.023 12.593-1.597 19 1 7.098.662 11.682.613 14.5-2 4-1-.886.205 1 3.793l-8 87.207h-36L.12 4.131z"/><path id="j" d="M8.874 89L16.5 0 8.874 1.5C4.227 61.024 1.5 81.5 0 90l8.874-1z"/><path id="k" d="M5.623 90.497L15 0 6.346 2.011C.986 61.864.576 83.459 0 91l5.623-.503z"/><path id="l" d="M.356.65C4.708-.09 7.06-.335 10.52.65c-.772 4.195-.568 6.349 0 10.127-1.453 1.374-3.63 1.4-10.165 0-.503-3.93-.446-6.15 0-10.127z"/><path id="m" d="M.21.41c2.564-.466 3.95-.622 5.989 0-.455 2.646-.335 4.005 0 6.389-.857.866-2.139.883-5.99 0-.295-2.48-.262-3.88 0-6.389z"/><path id="n" d="M.355.652c4.34-.742 6.688-.988 10.14 0-.772 4.205-.568 6.365 0 10.154-1.45 1.376-3.621 1.403-10.14 0-.501-3.941-.444-6.167 0-10.154z"/><path id="o" d="M.21.411c2.557-.467 3.94-.623 5.973 0-.454 2.653-.334 4.015 0 6.405-.854.869-2.133.886-5.974 0-.295-2.486-.262-3.89 0-6.405z"/><path id="p" d="M.21.411c2.557-.467 3.94-.623 5.973 0-.454 2.653-.334 4.015 0 6.405-.854.869-2.133.886-5.974 0-.295-2.486-.262-3.89 0-6.405z"/><path id="q" d="M.355.652c4.342-.742 6.689-.988 10.141 0-.77 4.204-.567 6.364 0 10.151-1.45 1.377-3.621 1.404-10.14 0-.502-3.94-.446-6.165 0-10.151z"/><path id="r" d="M.21.411c2.557-.467 3.94-.623 5.974 0-.454 2.652-.334 4.014 0 6.404-.854.868-2.134.885-5.975 0-.295-2.486-.262-3.89 0-6.404z"/><path id="s" d="M4.713 2.356a2.356 2.356 0 1 1-4.713 0 2.356 2.356 0 0 1 4.713 0z"/><path id="t" d="M4 2a2 2 0 1 1-4 0 2 2 0 0 1 4 0z"/><path id="u" d="M.355.651c4.345-.74 6.694-.987 10.15 0-.772 4.202-.568 6.36 0 10.144-1.452 1.376-3.625 1.403-10.15 0-.501-3.937-.445-6.16 0-10.144z"/><path id="v" d="M.21.41c2.56-.466 3.943-.622 5.979 0-.455 2.651-.334 4.012 0 6.4-.855.867-2.135.884-5.98 0-.295-2.484-.262-3.887 0-6.4z"/><path id="w" d="M0 0h56l-9.328 98.19a2 2 0 0 1-1.991 1.81H11.319a2 2 0 0 1-1.991-1.81L0 0z"/><path id="y" d="M0 0v-3h-3.299l.312 3.284L0 0zm56 0l2.987.284L59.298-3H56v3zm-9.328 98.19l2.987.283-2.987-.284zM0 3h56v-6H0v6zM53.013-.284l-9.328 98.19 5.974.567L58.987.283l-5.974-.567zM44.681 97H11.319v6h33.362v-6zm-32.366.905L2.987-.284l-5.974.568 9.328 98.189 5.974-.568zm31.37 0a1 1 0 0 1 .996-.905v6a5 5 0 0 0 4.978-4.527l-5.974-.568zM11.32 97a1 1 0 0 1 .995.905l-5.973.568A5 5 0 0 0 11.32 103v-6z"/><path id="z" d="M2 1a1 1 0 1 1-2 0 1 1 0 0 1 2 0z"/><path id="A" d="M4.4 2.2a2.2 2.2 0 1 1-4.4 0 2.2 2.2 0 0 1 4.4 0z"/><path id="B" d="M5.2 2.6a2.6 2.6 0 1 1-5.2 0 2.6 2.6 0 0 1 5.2 0z"/><path id="C" d="M.5 0H7v2H0l.5-2z"/><path id="D" d="M3.2 1.6a1.6 1.6 0 1 1-3.2 0 1.6 1.6 0 0 1 3.2 0z"/><path id="E" d="M18.664 9.332a9.332 9.332 0 0 1-9.332 9.332A9.332 9.332 0 1 1 9.332 0a9.332 9.332 0 0 1 9.332 9.332z"/><path id="F" d="M9.171 3.226c.329.188.677.43.943.687l-.105.104c-.523-.055-1.074.014-1.57.022-.056-.056-.168-.14-.064-.21l.796-.603zm9.256 6.469c.007.235.03.437-.063.677-.956.27-1.585-.737-2.512-.585l.104.522c.859.029 1.395.848 2.282.812-.126.25.056.91-.502.647-.58-.139-.998-.647-1.633-.647-.077.14-.028.334-.042.5.67.104 1.152.667 1.821.771-.063.23-.125.486-.314.625-.545-.132-.97-.618-1.55-.604l-.103.479c.551.014.907.5 1.402.645.014.202-.168.383-.272.563-.44-.131-.775-.507-1.278-.48-.007-.188.106-.401.063-.603-.564.167-.943-.354-1.36-.667-.013-1.024-1.096-1.696-1.154-2.655a1.418 1.418 0 0 1 .106-.615c.356-.82.245-1.883-.146-2.647-.119-.2-.329-.36-.525-.478.287.605.636 1.319.462 2.062-.02.574-.36 1.125-.364 1.678-.002.197.04.394.155.593.454.814 1.27 1.584.963 2.604-.084.313-.336.556-.399.874.532.438 1.034.931 1.739.959.25-.16.111-.867.628-.54l.754.374c-.055.201-.224.381-.377.52-.286-.139-.566-.305-.922-.291-.106.11-.196.235-.188.395.251.04.481.146.691.292-.097.209-.287.34-.462.5l-.585-.209c-.097.14-.3.286-.229.438.132.056.278.133.376.23-.259.278-.586.456-.9.645-.272-.882-1.166-1.5-1.09-2.521l-.04-.041c-.211.235-.14.61-.127.915.251.64.851 1.133.942 1.834-.105.18-.342.216-.523.292.02-1.263-1.905-2.221-.67-3.5.412-.625 1.102-1.222.857-2.084-.25-.832-1.139-1.347-1.131-2.28l.001-.072c.203-.973.817-2.007.314-3.042-.14-.416-.453-.889-.878-1.063.634.723.886 1.903.523 2.875-.183.387-.435.848-.46 1.303h-.002c-.013.237.035.473.19.697.481.779 1.318 1.633.837 2.647-.545.812-1.494 1.638-.964 2.708.384.639.978 1.276.818 2.061l-.628.209c.418-1.465-1.634-2.326-.775-3.791.53-.785 1.48-1.521.942-2.562-.32-.646-.984-1.027-.963-1.834l.023-.135c.216-1.144 1.09-2.226.479-3.448a2.176 2.176 0 0 0-.838-.938l-.021.022c.712.687.929 1.818.545 2.727-.18.534-.573 1.065-.653 1.637a1.34 1.34 0 0 0 .15.843c.454.715 1.25 1.473.754 2.397-.523.763-1.396 1.505-1.047 2.498.384.868 1.185 1.695.753 2.772l-.649.146c.517-1.05-.258-2.09-.711-3-.552-1.306 1.185-1.931 1.213-3.125-.006-.77-.83-1.208-1.004-1.916-.356-.3-.725.119-1.151.041-.315.063-.798-.43-.985.104-.224.785-1.242 1.361-.795 2.292.426.826 1.451 1.43 1.109 2.5-.307 1-1.32 1.951-.691 3.104-.258-.084-.74.076-.733-.334-.398-1.396 1.298-2.21.774-3.604-.244-.854-1.354-1.327-1.11-2.354.181-.846 1.135-1.438 1.001-2.364a1.363 1.363 0 0 0-.057-.24c-.356-1-1.083-2-.65-3.167.12-.333.357-.618.565-.916-.69.368-1.04 1.146-1.025 1.937-.03.861.609 1.598.7 2.386a1.45 1.45 0 0 1-.24.988c-.453.612-1.046 1.258-.774 2.063.258.813 1.277 1.306 1.214 2.25-.007 1.118-1.312 1.814-.942 3.063l-.65-.21c-.257-1.11.929-1.678.943-2.706.167-1.181-1.347-1.62-1.257-2.772-.006-.875.768-1.43 1.11-2.165.059-.18.079-.349.07-.511-.041-.814-.778-1.45-.656-2.366a2.889 2.889 0 0 1 .711-1.77c-.607.243-.857.938-1.025 1.521-.291.935.404 1.777.473 2.615.031.37-.06.738-.41 1.114-.503.59-1.013 1.334-.65 2.126.385.874 1.593 1.554 1.069 2.645-.286.687-.97 1.208-.942 2.02-.182-.076-.37-.152-.524-.291 0-1.034 1.48-1.68.775-2.77-.063.214-.076.507-.125.75-.245.632-.768 1.138-.964 1.792-.327-.126-.67-.39-.942-.668l.377-.23c-.042-.139-.153-.257-.25-.375-.246-.034-.407.126-.608.188-.175-.153-.343-.292-.482-.479.125-.355 1.103-.061.608-.645-.335-.208-.671.09-.964.228l-.397-.5c.342-.207.683-.5 1.108-.416.105.188.112.464.314.562.72-.014 1.229-.555 1.78-.978-.384-.569-.697-1.354-.356-2.042.274-.69.986-1.27 1.018-2.031a1.349 1.349 0 0 0-.096-.553c-.376-.965-.51-2.27.21-3.124-.391.104-.622.59-.755.957-.432.943.115 1.816.134 2.72.002.162-.01.325-.05.489-.37.743-.97 1.395-1.067 2.25-.426.27-.776.743-1.383.583-.021.16.028.403.083.584-.48-.02-.809.332-1.214.499-.216-.069-.272-.347-.356-.54.474-.16.817-.633 1.361-.626.063-.174-.035-.334-.063-.5-.677-.3-1.751 1.478-1.841-.063.676-.042 1.109-.667 1.78-.73l.02-.498c-.761-.077-1.25.701-2.011.624l-.168-.666c.88.055 1.404-.73 2.242-.772.11-.145.124-.36.146-.562-.915-.118-1.542.89-2.513.584l-.051-.656h.001a3.921 3.921 0 0 0-.013-.157c.866.334 1.626-.285 2.366-.604.189-.056.482.041.567-.167-.008-.16.285-.346.041-.458-1.082-.146-1.8 1.153-2.91.562L0 8.704C.23 5.566 2.01 2.532 4.962 1.04 6.158.359 7.642.013 9.14 0c1.807-.015 3.634.457 4.993 1.414 1.32.805 2.582 2.133 3.267 3.48.655 1.18.957 2.505 1.047 3.915-1.145.86-1.913-.811-3.08-.437.063.18.098.368.232.52 1.033-.006 1.744 1.07 2.826.646v.157zM5.276 5.83c-.726-.473-1.647-.028-2.323.23-.063-.633-.321-1.209-.86-1.625-.052-.026-.124-.08-.189-.085-.039-.002-.076.014-.104.063.244 1.493-.732 2.534-1.423 3.667.23.187.6.159.88.104.732-.292 1.43-.8 2.302-.625.258-.438.692-.861 1.047-1.209.217-.187.516-.305.67-.52zm2.22.937c-.014.09.006.25.146.188.216-.298.6-.062.837-.041V6.83c-.13-.203-.398-.305-.67-.295a.995.995 0 0 0-.187.025c-.091.02-.155.103-.126.207zm3.412-.894c-.194-.431-.641-.605-1.047-.71a5.468 5.468 0 0 0-.609-.042h-.115c-.572.011-1.119.157-1.453.626-.048.132-.258.318-.063.436.44-.028.942-.082 1.235.293 0 .334.217.778-.146.937-.3-.277-.657.118-.984-.104-.154-.09-.25.015-.314.147-.09.86.362 1.81 1.172 2.29.328.118.769.23 1.111.062.824-.381 1.165-1.255 1.318-2.061-.02-.153-.013-.452-.23-.46-.243.154-.6.064-.858 0-.153.05-.16.272-.334.315l-.106-.085c-.091-.38-.147-.923.21-1.187.397-.16.865-.23 1.277-.104.077-.132-.042-.235-.064-.353zm-.42.684l-.082.003c-.146.097-.572.027-.418.354.265-.209.635-.063.9.041.098-.048.077-.145.084-.23-.086-.157-.289-.172-.484-.168zm3.039-2.936c-.517-.027-.95.265-1.424.397-.041-.402.266-.826.336-1.23-.768.05-1.376.509-2.01.876a168.91 168.91 0 0 1-.441-1.063l.838-.792.021-.104-1.131-.063c-.195-.34-.272-.748-.502-1.061-.189.354-.315.729-.504 1.083l-1.13.063v.082l.858.77c-.105.397-.202.827-.46 1.126-.503-.3-.998-.625-1.549-.833-.133-.042-.322-.112-.44-.021.174.382.418.793.377 1.21-.23-.043-.412-.19-.628-.251-.26-.07-.566-.208-.818-.124.42.583.761 1.193.88 1.894 1.389-.667 3.01-1.034 4.692-.749.788.125 1.513.444 2.218.708.028-.736.495-1.327.817-1.918zm2.386 4c.712.188 1.425.959 2.178.459-.656-1.083-1.632-2.084-1.36-3.5.028-.097-.035-.195-.125-.208-.426.173-.755.59-.924 1-.069.242-.11.5-.208.729-.51-.264-1.053-.52-1.675-.458-.224.028-.545.042-.586.271.705.375 1.285 1 1.717 1.666.3-.048.67-.007.983.042zm-7.454.98l.02.125c.273.18.357.487.734.46.335.019.587-.293.753-.543-.453-.062-1.004.034-1.507-.043zm.377-.563c.014.056-.034.14.042.167.223-.048.628.118.752-.145-.087-.097-.229-.142-.378-.142a.76.76 0 0 0-.416.12z"/><path id="G" d="M0 0h1.53v.626H0V0z"/><path id="H" d="M.029.175C.226.222.275.291.43.311.598.308.574.274.863.175.883.168.91.126.876.095.696-.084.572.043.46.046.31.05.17-.08.023.087c-.025.034-.038.068.006.088z"/></defs></svg>