<svg width="239" height="29" viewBox="0 0 239 29" version="1.1" xmlns="http://www.w3.org/2000/svg" xmlns:xlink="http://www.w3.org/1999/xlink">
<title>Group</title>
<desc>Created using Figma</desc>
<g id="Canvas" transform="translate(376 700)">
<g id="Group">
<g id="Group">
<g id="Rectangle">
<use xlink:href="#path0_fill" transform="translate(-376 -686)" fill="#603CC9"/>
</g>
<g id="Rectangle">
<use xlink:href="#path1_fill" transform="translate(-369 -692)" fill="#9672FF"/>
</g>
<g id="Rectangle">
<use xlink:href="#path2_fill" transform="translate(-361.455 -698)" fill="#D05DE2"/>
</g>
</g>
<g id="GrowthGoddess">
<use xlink:href="#path3_fill" transform="translate(-353 -709)" fill="#000000" fill-opacity="0.8"/>
</g>
</g>
</g>
<defs>
<path id="path0_fill" d="M 0 2.5C 0 1.11929 1.11929 0 2.5 0C 3.88071 0 5 1.11929 5 2.5L 5 11.5C 5 12.8807 3.88071 14 2.5 14C 1.11929 14 0 12.8807 0 11.5L 0 2.5Z"/>
<path id="path1_fill" d="M 0 2.5C 0 1.11929 1.11929 0 2.5 0C 3.88071 0 5 1.11929 5 2.5L 5 17.5C 5 18.8807 3.88071 20 2.5 20C 1.11929 20 0 18.8807 0 17.5L 0 2.5Z"/>
<path id="path2_fill" d="M 0 2.5C 0 1.11929 1.11929 0 2.5 0C 3.88071 0 5 1.11929 5 2.5L 5 23.5C 5 24.8807 3.88071 26 2.5 26C 1.11929 26 0 24.8807 0 23.5L 0 2.5Z"/>
<path id="path3_fill" d="M 2.124 29.188L 2.124 18.712C 2.124 15.952 2.856 13.924 4.32 12.628C 5.784 11.332 7.704 10.684 10.08 10.684C 12.504 10.684 14.472 11.296 15.984 12.52C 17.52 13.72 18.288 15.328 18.288 17.344C 18.288 18.04 18.132 18.52 17.82 18.784C 17.532 19.048 17.052 19.18 16.38 19.18C 15.132 19.18 14.496 18.76 14.472 17.92C 14.208 15.352 12.78 14.068 10.188 14.068C 7.356 14.068 5.94 15.616 5.94 18.712L 5.94 29.188C 5.94 32.284 7.356 33.832 10.188 33.832C 11.556 33.832 12.612 33.448 13.356 32.68C 14.1 31.912 14.472 30.748 14.472 29.188L 14.472 26.236L 10.836 26.236C 10.452 26.236 10.152 26.092 9.936 25.804C 9.72 25.492 9.612 25.12 9.612 24.688C 9.612 24.304 9.72 23.956 9.936 23.644C 10.152 23.332 10.452 23.176 10.836 23.176L 17.028 23.176C 17.412 23.176 17.712 23.308 17.928 23.572C 18.168 23.812 18.288 24.112 18.288 24.472L 18.288 29.188C 18.288 31.948 17.544 33.976 16.056 35.272C 14.592 36.568 12.636 37.216 10.188 37.216C 7.74 37.216 5.784 36.568 4.32 35.272C 2.856 33.976 2.124 31.948 2.124 29.188ZM 21.9839 35.74L 21.9839 21.16C 21.9839 20.8 22.1519 20.512 22.4879 20.296C 22.8479 20.056 23.2919 19.936 23.8199 19.936C 24.2999 19.936 24.7079 20.056 25.0439 20.296C 25.3799 20.512 25.5479 20.8 25.5479 21.16L 25.5479 22.744C 25.9559 21.904 26.5679 21.196 27.3839 20.62C 28.2239 20.02 29.1359 19.72 30.1199 19.72L 31.2719 19.72C 31.6559 19.72 31.9919 19.888 32.2799 20.224C 32.5679 20.536 32.7119 20.92 32.7119 21.376C 32.7119 21.832 32.5679 22.228 32.2799 22.564C 31.9919 22.9 31.6559 23.068 31.2719 23.068L 30.1199 23.068C 28.9679 23.068 27.9479 23.56 27.0599 24.544C 26.1959 25.528 25.7639 26.8 25.7639 28.36L 25.7639 35.74C 25.7639 36.052 25.5719 36.34 25.1879 36.604C 24.8039 36.868 24.3479 37 23.8199 37C 23.2919 37 22.8479 36.868 22.4879 36.604C 22.1519 36.34 21.9839 36.052 21.9839 35.74ZM 33.8507 30.124L 33.8507 26.812C 33.8507 24.916 34.5827 23.26 36.0467 21.844C 37.5107 20.428 39.2627 19.72 41.3027 19.72C 43.2947 19.72 45.0347 20.428 46.5227 21.844C 48.0107 23.236 48.7547 24.892 48.7547 26.812L 48.7547 30.124C 48.7547 31.996 47.9987 33.664 46.4867 35.128C 44.9987 36.568 43.2707 37.288 41.3027 37.288C 39.3107 37.288 37.5707 36.568 36.0827 35.128C 34.5947 33.688 33.8507 32.02 33.8507 30.124ZM 37.6307 30.124C 37.6307 31.108 37.9907 31.996 38.7107 32.788C 39.4307 33.556 40.2947 33.94 41.3027 33.94C 42.2867 33.94 43.1387 33.556 43.8587 32.788C 44.6027 31.996 44.9747 31.108 44.9747 30.124L 44.9747 26.812C 44.9747 25.852 44.6027 24.988 43.8587 24.22C 43.1387 23.452 42.2867 23.068 41.3027 23.068C 40.2947 23.068 39.4307 23.452 38.7107 24.22C 37.9907 24.988 37.6307 25.852 37.6307 26.812L 37.6307 30.124ZM 50.4577 21.376C 50.4577 20.944 50.7217 20.572 51.2497 20.26C 51.7777 19.948 52.3177 19.792 52.8697 19.792C 53.4697 19.792 53.8537 20.02 54.0217 20.476L 58.0177 31.672L 61.0777 21.736C 61.2457 21.184 61.6897 20.908 62.4097 20.908C 63.1297 20.908 63.5737 21.184 63.7417 21.736L 66.7657 31.744L 70.7977 20.476C 70.9417 20.02 71.3137 19.792 71.9137 19.792C 72.4417 19.792 72.9697 19.948 73.4977 20.26C 74.0497 20.572 74.3257 20.956 74.3257 21.412C 74.3257 21.604 74.2777 21.796 74.1817 21.988L 68.6017 36.604C 68.4097 37.108 67.9057 37.36 67.0897 37.36C 66.2737 37.36 65.7577 37.12 65.5417 36.64L 62.4097 27.352L 59.3137 36.532C 59.0977 37.084 58.5577 37.36 57.6937 37.36C 56.9017 37.36 56.3977 37.084 56.1817 36.532L 50.6017 21.988C 50.5057 21.7 50.4577 21.496 50.4577 21.376ZM 76.651 31.384L 76.651 13.348C 76.651 13.012 76.843 12.724 77.227 12.484C 77.611 12.244 78.043 12.124 78.523 12.124C 79.003 12.124 79.435 12.244 79.819 12.484C 80.227 12.724 80.431 13.012 80.431 13.348L 80.431 19.936L 84.823 19.936C 85.135 19.936 85.387 20.08 85.579 20.368C 85.771 20.632 85.867 20.956 85.867 21.34C 85.867 21.724 85.771 22.06 85.579 22.348C 85.387 22.612 85.135 22.744 84.823 22.744L 80.431 22.744L 80.431 31.384C 80.431 32.248 80.611 32.86 80.971 33.22C 81.355 33.58 82.015 33.76 82.951 33.76L 84.211 33.76C 84.715 33.76 85.111 33.916 85.399 34.228C 85.687 34.54 85.831 34.924 85.831 35.38C 85.831 35.836 85.687 36.22 85.399 36.532C 85.111 36.844 84.715 37 84.211 37L 82.951 37C 78.751 37 76.651 35.128 76.651 31.384ZM 88.5707 35.74L 88.5707 11.008C 88.5707 10.648 88.7387 10.36 89.0747 10.144C 89.4347 9.904 89.8907 9.784 90.4427 9.784C 90.9707 9.784 91.4147 9.904 91.7747 10.144C 92.1587 10.36 92.3507 10.648 92.3507 11.008L 92.3507 22.456C 92.7347 21.688 93.3227 21.04 94.1147 20.512C 94.9307 19.984 95.8787 19.72 96.9587 19.72C 98.6627 19.72 100.127 20.416 101.351 21.808C 102.599 23.2 103.223 24.868 103.223 26.812L 103.223 35.74C 103.223 36.124 103.031 36.436 102.647 36.676C 102.263 36.892 101.819 37 101.315 37C 100.835 37 100.403 36.892 100.019 36.676C 99.6347 36.436 99.4427 36.124 99.4427 35.74L 99.4427 26.812C 99.4427 25.852 99.0827 24.988 98.3627 24.22C 97.6427 23.452 96.7907 23.068 95.8067 23.068C 94.8947 23.068 94.0907 23.416 93.3947 24.112C 92.6987 24.784 92.3507 25.684 92.3507 26.812L 92.3507 35.74C 92.3507 36.052 92.1587 36.34 91.7747 36.604C 91.3907 36.868 90.9467 37 90.4427 37C 89.9147 37 89.4707 36.868 89.1107 36.604C 88.7507 36.34 88.5707 36.052 88.5707 35.74ZM 107.783 29.8L 107.783 18.1C 107.783 15.532 108.419 13.66 109.691 12.484C 110.963 11.284 112.667 10.684 114.803 10.684C 116.963 10.684 118.679 11.248 119.951 12.376C 121.223 13.504 121.859 14.92 121.859 16.624C 121.859 17.104 121.643 17.344 121.211 17.344C 120.803 17.344 120.587 17.128 120.563 16.696C 120.347 15.112 119.735 13.936 118.727 13.168C 117.743 12.376 116.435 11.98 114.803 11.98C 112.955 11.98 111.539 12.496 110.555 13.528C 109.571 14.536 109.079 16.06 109.079 18.1L 109.079 29.8C 109.079 31.84 109.571 33.376 110.555 34.408C 111.539 35.416 112.955 35.92 114.803 35.92C 116.651 35.92 118.067 35.416 119.051 34.408C 120.059 33.376 120.563 31.84 120.563 29.8L 120.563 24.472L 114.839 24.472C 114.431 24.472 114.227 24.256 114.227 23.824C 114.227 23.392 114.431 23.176 114.839 23.176L 121.247 23.176C 121.655 23.176 121.859 23.404 121.859 23.86L 121.859 29.8C 121.859 32.368 121.211 34.252 119.915 35.452C 118.643 36.628 116.939 37.216 114.803 37.216C 112.667 37.216 110.963 36.628 109.691 35.452C 108.419 34.252 107.783 32.368 107.783 29.8ZM 125.972 30.664L 125.972 26.272C 125.972 24.544 126.596 23.032 127.844 21.736C 129.116 20.44 130.616 19.792 132.344 19.792C 134.072 19.792 135.572 20.428 136.844 21.7C 138.116 22.972 138.752 24.496 138.752 26.272L 138.752 30.664C 138.752 32.392 138.104 33.916 136.808 35.236C 135.536 36.556 134.048 37.216 132.344 37.216C 130.64 37.216 129.152 36.556 127.88 35.236C 126.608 33.916 125.972 32.392 125.972 30.664ZM 127.232 30.664C 127.232 32.032 127.736 33.256 128.744 34.336C 129.752 35.416 130.952 35.956 132.344 35.956C 133.736 35.956 134.936 35.416 135.944 34.336C 136.976 33.256 137.492 32.032 137.492 30.664L 137.492 26.272C 137.492 24.928 136.988 23.728 135.98 22.672C 134.972 21.592 133.76 21.052 132.344 21.052C 130.928 21.052 129.716 21.592 128.708 22.672C 127.724 23.728 127.232 24.928 127.232 26.272L 127.232 30.664ZM 142.355 30.664L 142.355 26.272C 142.355 24.496 142.991 22.972 144.263 21.7C 145.535 20.428 147.059 19.792 148.835 19.792C 151.019 19.792 152.627 20.704 153.659 22.528L 153.659 9.964C 153.659 9.556 153.875 9.352 154.307 9.352C 154.715 9.352 154.919 9.556 154.919 9.964L 154.919 36.352C 154.919 36.52 154.859 36.676 154.739 36.82C 154.619 36.94 154.475 37 154.307 37C 154.139 37 153.983 36.94 153.839 36.82C 153.719 36.676 153.659 36.52 153.659 36.352L 153.659 34.48C 153.251 35.248 152.591 35.896 151.679 36.424C 150.791 36.952 149.819 37.216 148.763 37.216C 147.059 37.216 145.559 36.556 144.263 35.236C 142.991 33.916 142.355 32.392 142.355 30.664ZM 143.615 30.664C 143.615 32.032 144.119 33.256 145.127 34.336C 146.159 35.416 147.347 35.956 148.691 35.956C 149.987 35.956 151.139 35.488 152.147 34.552C 153.155 33.592 153.659 32.74 153.659 31.996L 153.659 26.272C 153.659 24.712 153.155 23.452 152.147 22.492C 151.163 21.532 150.023 21.052 148.727 21.052C 147.359 21.052 146.159 21.592 145.127 22.672C 144.119 23.728 143.615 24.928 143.615 26.272L 143.615 30.664ZM 159.195 30.664L 159.195 26.272C 159.195 24.496 159.831 22.972 161.103 21.7C 162.375 20.428 163.899 19.792 165.675 19.792C 167.859 19.792 169.467 20.704 170.499 22.528L 170.499 9.964C 170.499 9.556 170.715 9.352 171.147 9.352C 171.555 9.352 171.759 9.556 171.759 9.964L 171.759 36.352C 171.759 36.52 171.699 36.676 171.579 36.82C 171.459 36.94 171.315 37 171.147 37C 170.979 37 170.823 36.94 170.679 36.82C 170.559 36.676 170.499 36.52 170.499 36.352L 170.499 34.48C 170.091 35.248 169.431 35.896 168.519 36.424C 167.631 36.952 166.659 37.216 165.603 37.216C 163.899 37.216 162.399 36.556 161.103 35.236C 159.831 33.916 159.195 32.392 159.195 30.664ZM 160.455 30.664C 160.455 32.032 160.959 33.256 161.967 34.336C 162.999 35.416 164.187 35.956 165.531 35.956C 166.827 35.956 167.979 35.488 168.987 34.552C 169.995 33.592 170.499 32.74 170.499 31.996L 170.499 26.272C 170.499 24.712 169.995 23.452 168.987 22.492C 168.003 21.532 166.863 21.052 165.567 21.052C 164.199 21.052 162.999 21.592 161.967 22.672C 160.959 23.728 160.455 24.928 160.455 26.272L 160.455 30.664ZM 176.07 30.664L 176.07 26.164C 176.07 24.436 176.694 22.948 177.942 21.7C 179.214 20.428 180.726 19.792 182.478 19.792C 184.206 19.792 185.694 20.416 186.942 21.664C 188.214 22.888 188.85 24.424 188.85 26.272C 188.85 26.896 188.778 27.4 188.634 27.784C 188.49 28.168 188.25 28.444 187.914 28.612C 187.578 28.78 187.266 28.888 186.978 28.936C 186.714 28.96 186.342 28.972 185.862 28.972L 177.33 28.972L 177.33 30.664C 177.33 32.272 177.894 33.556 179.022 34.516C 180.15 35.476 181.614 35.956 183.414 35.956C 184.302 35.956 185.046 35.836 185.646 35.596C 186.246 35.332 186.69 35.08 186.978 34.84C 187.29 34.6 187.518 34.48 187.662 34.48C 187.83 34.48 187.974 34.552 188.094 34.696C 188.238 34.84 188.31 34.984 188.31 35.128C 188.31 35.368 188.118 35.656 187.734 35.992C 187.35 36.304 186.762 36.592 185.97 36.856C 185.178 37.096 184.302 37.216 183.342 37.216C 181.206 37.216 179.454 36.616 178.086 35.416C 176.742 34.192 176.07 32.608 176.07 30.664ZM 177.33 27.712L 185.43 27.712C 186.318 27.712 186.894 27.628 187.158 27.46C 187.446 27.292 187.59 26.932 187.59 26.38C 187.59 25.012 187.11 23.788 186.15 22.708C 185.19 21.604 183.966 21.052 182.478 21.052C 181.038 21.052 179.814 21.568 178.806 22.6C 177.822 23.608 177.33 24.796 177.33 26.164L 177.33 27.712ZM 191.634 34.876C 191.634 34.708 191.682 34.564 191.778 34.444C 191.898 34.324 192.018 34.264 192.138 34.264C 192.258 34.264 192.438 34.36 192.678 34.552L 193.434 35.128C 193.722 35.32 194.166 35.512 194.766 35.704C 195.39 35.872 196.086 35.956 196.854 35.956C 198.27 35.956 199.326 35.68 200.022 35.128C 200.718 34.576 201.066 33.856 201.066 32.968C 201.066 31.936 200.754 31.132 200.13 30.556C 199.506 29.956 198.75 29.524 197.862 29.26L 195.198 28.432C 194.31 28.144 193.554 27.688 192.93 27.064C 192.306 26.416 191.994 25.552 191.994 24.472C 191.994 23.248 192.45 22.168 193.362 21.232C 194.274 20.272 195.594 19.792 197.322 19.792C 198.378 19.792 199.374 19.96 200.31 20.296C 201.246 20.632 201.714 20.968 201.714 21.304C 201.714 21.448 201.642 21.604 201.498 21.772C 201.378 21.94 201.246 22.024 201.102 22.024C 201.078 22.024 200.658 21.868 199.842 21.556C 199.05 21.22 198.222 21.052 197.358 21.052C 195.966 21.052 194.934 21.412 194.262 22.132C 193.59 22.828 193.254 23.596 193.254 24.436C 193.254 25.3 193.566 25.984 194.19 26.488C 194.814 26.992 195.57 27.364 196.458 27.604C 197.346 27.844 198.234 28.108 199.122 28.396C 200.01 28.684 200.766 29.2 201.39 29.944C 202.014 30.688 202.326 31.672 202.326 32.896C 202.326 34.24 201.846 35.296 200.886 36.064C 199.926 36.832 198.594 37.216 196.89 37.216C 195.402 37.216 194.154 36.952 193.146 36.424C 192.138 35.896 191.634 35.38 191.634 34.876ZM 205.063 34.876C 205.063 34.708 205.111 34.564 205.207 34.444C 205.327 34.324 205.447 34.264 205.567 34.264C 205.687 34.264 205.867 34.36 206.107 34.552L 206.863 35.128C 207.151 35.32 207.595 35.512 208.195 35.704C 208.819 35.872 209.515 35.956 210.283 35.956C 211.699 35.956 212.755 35.68 213.451 35.128C 214.147 34.576 214.495 33.856 214.495 32.968C 214.495 31.936 214.183 31.132 213.559 30.556C 212.935 29.956 212.179 29.524 211.291 29.26L 208.627 28.432C 207.739 28.144 206.983 27.688 206.359 27.064C 205.735 26.416 205.423 25.552 205.423 24.472C 205.423 23.248 205.879 22.168 206.791 21.232C 207.703 20.272 209.023 19.792 210.751 19.792C 211.807 19.792 212.803 19.96 213.739 20.296C 214.675 20.632 215.143 20.968 215.143 21.304C 215.143 21.448 215.071 21.604 214.927 21.772C 214.807 21.94 214.675 22.024 214.531 22.024C 214.507 22.024 214.087 21.868 213.271 21.556C 212.479 21.22 211.651 21.052 210.787 21.052C 209.395 21.052 208.363 21.412 207.691 22.132C 207.019 22.828 206.683 23.596 206.683 24.436C 206.683 25.3 206.995 25.984 207.619 26.488C 208.243 26.992 208.999 27.364 209.887 27.604C 210.775 27.844 211.663 28.108 212.551 28.396C 213.439 28.684 214.195 29.2 214.819 29.944C 215.443 30.688 215.755 31.672 215.755 32.896C 215.755 34.24 215.275 35.296 214.315 36.064C 213.355 36.832 212.023 37.216 210.319 37.216C 208.831 37.216 207.583 36.952 206.575 36.424C 205.567 35.896 205.063 35.38 205.063 34.876Z"/>
</defs>
</svg>
